<svg xmlns="http://www.w3.org/2000/svg" viewBox="0 0 24 32" fill="currentColor"><title>location-dot</title><path d="M22 12c0-5.525-4.475-10-10-10s-10 4.475-10 10c0 0.975 0.337 2.313 1.038 3.963 0.681 1.619 1.637 3.375 2.725 5.131 2.131 3.456 4.65 6.762 6.244 8.75 1.588-1.988 4.113-5.294 6.244-8.75 1.081-1.756 2.044-3.519 2.725-5.131 0.688-1.65 1.025-2.987 1.025-3.963zM24 12c0 5.462-7.313 15.188-10.519 19.2-0.769 0.956-2.194 0.956-2.963 0-3.206-4.012-10.519-13.738-10.519-19.2 0-6.625 5.375-12 12-12s12 5.375 12 12zM9 12c0 1.657 1.343 3 3 3s3-1.343 3-3v0c0-1.657-1.343-3-3-3s-3 1.343-3 3v0zM12 17c-2.761 0-5-2.239-5-5s2.239-5 5-5v0c2.761 0 5 2.239 5 5s-2.239 5-5 5v0z"></path></svg>
