<svg xmlns="http://www.w3.org/2000/svg" viewBox="0 0 32 32" fill="currentColor"><title>phone</title><path d="M23.488 17.2c-1.025-0.438-2.212-0.15-2.919 0.712l-2.075 2.538c-2.875-1.669-5.275-4.069-6.944-6.944l2.531-2.069c0.863-0.706 1.156-1.894 0.713-2.919l-3-7c-0.469-1.1-1.65-1.712-2.819-1.462l-7 1.5c-1.15 0.244-1.975 1.262-1.975 2.444 0 0 0 0 0 0 0 14.794 11.469 26.906 26 27.931 0.281 0.019 0.569 0.038 0.856 0.050 0 0 0 0 0 0s0 0 0.006 0c0.381 0.012 0.756 0.025 1.144 0.025 0 0 0 0 0 0 1.181 0 2.2-0.825 2.444-1.975l1.5-7c0.25-1.169-0.363-2.35-1.462-2.819l-7-3zM27.981 30c-14.35-0.012-25.981-11.644-25.981-26 0 0 0 0 0 0s0 0 0 0 0 0 0 0 0 0 0 0 0 0 0 0 0 0 0 0 0 0 0 0 0 0 0 0 0 0 0 0 0 0 0 0 0 0 0 0 0 0 0 0 0 0 0 0 0 0 0 0 0 0 0 0 0 0 0 0 0 0 0 0 0 0 0 0 0 0 0 0 0 0 0 0 0 0 0 0 0 0 0 0 0 0 0 0 0 0 0 0c0-0.237 0.163-0.438 0.394-0.487l7-1.5c0.231-0.050 0.469 0.075 0.563 0.294l3 7c0.088 0.206 0.031 0.444-0.144 0.581l-2.537 2.075c-0.756 0.619-0.956 1.7-0.463 2.55 1.844 3.181 4.494 5.831 7.669 7.669 0.85 0.494 1.931 0.294 2.55-0.462l2.075-2.538c0.144-0.175 0.381-0.231 0.581-0.144l7 3c0.219 0.094 0.344 0.331 0.294 0.563l-1.5 7c-0.050 0.231-0.256 0.394-0.488 0.394-0.006 0-0.012 0-0.019 0z"></path></svg>
