<svg xmlns="http://www.w3.org/2000/svg" viewBox="0 0 32 32" fill="currentColor"><title>circle-xmark</title><path d="M16 2c7.732 0 14 6.268 14 14s-6.268 14-14 14v0c-7.732 0-14-6.268-14-14s6.268-14 14-14v0zM16 32c8.837 0 16-7.163 16-16s-7.163-16-16-16v0c-8.837 0-16 7.163-16 16s7.163 16 16 16v0zM11.294 11.294c-0.387 0.387-0.387 1.025 0 1.412l3.294 3.294-3.294 3.294c-0.387 0.387-0.387 1.025 0 1.413s1.025 0.387 1.412 0l3.294-3.294 3.294 3.294c0.387 0.387 1.025 0.387 1.413 0s0.387-1.025 0-1.413l-3.294-3.294 3.294-3.294c0.387-0.387 0.387-1.025 0-1.412s-1.025-0.387-1.413 0l-3.294 3.294-3.294-3.294c-0.387-0.387-1.025-0.387-1.412 0z"></path></svg>
