<?xml version="1.0" encoding="UTF-8"?>
<svg xmlns="http://www.w3.org/2000/svg" xmlns:xlink="http://www.w3.org/1999/xlink" width="218.896" height="229.009" viewBox="0 0 218.896 229.009">
  <defs>
    <clipPath id="clip-path">
      <rect id="Rectangle_11" data-name="Rectangle 11" width="218.896" height="229.009" fill="none"></rect>
    </clipPath>
  </defs>
  <g id="Group_4" data-name="Group 4" transform="translate(0 -0.001)">
    <g id="Group_3" data-name="Group 3" transform="translate(0 0.001)" clip-path="url(#clip-path)">
      <path id="Path_30" data-name="Path 30" d="M118.3,207.669c1.3-1.3,2.482-2.655,3.833-3.811,6.928-5.928,16.392-6.031,23.964-.866,6.039,4.119,9.967,9.722,11.092,17.042a30.841,30.841,0,0,1-2.5,17.448A58.181,58.181,0,0,1,141.276,256c-1.96,1.871-4.076,3.576-6.1,5.384a1.65,1.65,0,0,0-.588.976c-.3,7.231-1.945,14.214-3.823,21.158-.793,2.933-1.6,5.863-2.29,8.821a14.368,14.368,0,0,0-.261,5.565,2.171,2.171,0,0,0,.436.9c.088-1.332,1.169-1.317,1.969-1.646a23.774,23.774,0,0,0,2.622-1.06,4.241,4.241,0,0,1,6.23,2.643h25.312v-.924q0-19.39,0-38.78a2.121,2.121,0,0,1,2.511-2.43,2.053,2.053,0,0,1,2.208,2.212c.03,1.151.007,2.3.007,3.456v.792h1.865c0-.383,0-.779,0-1.174,0-1.1-.017-2.2.009-3.3a1.978,1.978,0,0,1,2.095-1.981c1.467-.076,2.43.534,2.528,1.746s.051,2.454.066,3.682c0,.328,0,.655,0,1.027h1.4a3.134,3.134,0,0,0,.06-.418c.26-15.894.49-31.788.788-47.68.123-6.525.387-13.047.605-19.569a15.032,15.032,0,0,1,.269-1.972c.072-.429.271-.884.773-.73a1.211,1.211,0,0,1,.733.79,41.039,41.039,0,0,1,.34,4.358q.269,18.5.483,37.009c.08,7.141.1,14.283.162,21.424a3.166,3.166,0,0,0,.346.925,6.453,6.453,0,0,1,.574,1.683c.085,1.371.027,2.751.027,4.176h1.876c0-1.381-.009-2.73,0-4.08a2.094,2.094,0,0,1,2.418-2.374,2.054,2.054,0,0,1,2.283,2.276c.011,1.331.008,2.662.014,3.992a.771.771,0,0,0,.063.187h1.787c0-1.323.043-2.623-.01-3.918-.087-2.14,1.382-2.874,3.338-2.424a1.987,1.987,0,0,1,1.394,2.072c.017,1.4,0,2.81,0,4.266h1.856c0-1.355,0-2.7,0-4.05,0-1.614.752-2.387,2.313-2.4a2.116,2.116,0,0,1,2.411,2.4c.01,1.329,0,2.659,0,4.047h1.862c0-1.314.061-2.638-.014-3.954-.124-2.174,1.546-2.836,3.367-2.361a1.978,1.978,0,0,1,1.346,2.106c.024,1.1.006,2.2.007,3.3,0,.279,0,.558,0,.9h1.874c0-.643,0-1.3,0-1.952s.037-1.333-.007-2c-.151-2.3,1.659-2.8,3.354-2.361a1.894,1.894,0,0,1,1.325,1.954c.023,1.43.006,2.861.006,4.356h1.884c0-.977,0-1.963,0-2.949,0-.41,0-.819,0-1.229a1.946,1.946,0,0,1,1.109-2.02,2.812,2.812,0,0,1,2.719.138,1.948,1.948,0,0,1,.87,1.778c0,1.407,0,2.813,0,4.16a6.333,6.333,0,0,1,1.689.565c.215.145.227.789.131,1.154-.246.936-1.1.537-1.767.684v26.254a7,7,0,0,1,1.6.468c.188.1.185.654.175,1-.037,1.316-1.147.613-1.831.945v2c0,1.536.007,3.072,0,4.608-.005.778-.335,1.134-1.108,1.162-.792.029-1.587.021-2.38,0-.876-.02-1.2-.342-1.2-1.228-.013-1.92,0-3.84,0-5.76v-.856h-1.881v.817c0,1.92,0,3.84,0,5.759,0,.921-.323,1.249-1.237,1.268-.717.015-1.434.012-2.15,0-.98-.015-1.286-.319-1.289-1.287-.006-1.92,0-3.84,0-5.76v-.792h-1.874c0,1.136,0,2.231,0,3.326,0,1.126,0,2.253,0,3.379a1.01,1.01,0,0,1-1.08,1.126c-.844.026-1.69.03-2.534,0-.771-.028-1.083-.381-1.086-1.179-.007-2.2,0-4.4,0-6.646h-1.862v2.136c0,1.485.008,2.969,0,4.454-.007.862-.353,1.216-1.208,1.239-.742.021-1.485.015-2.227,0-.963-.016-1.285-.342-1.287-1.3,0-1.92,0-3.84,0-5.759v-.784H195.8v.8c0,1.92,0,3.84,0,5.759,0,.917-.333,1.261-1.234,1.283-.716.017-1.433.011-2.15,0-1.014-.013-1.336-.331-1.338-1.336-.006-2.148,0-4.3,0-6.5h-1.862v2.053c0,1.536.007,3.072,0,4.608,0,.777-.338,1.137-1.107,1.165-.792.029-1.587.021-2.38,0-.879-.02-1.2-.342-1.21-1.224-.014-1.92,0-3.84-.005-5.76v-.859h-1.875v.814c0,1.92,0,3.84,0,5.759,0,.92-.325,1.242-1.237,1.272-.179.006-.358,0-.537,0H56.455c-.179,0-.359,0-.538,0-.917-.03-1.248-.355-1.251-1.262-.006-1.92,0-3.84,0-5.76v-.812H52.808c0,.816,0,1.626,0,2.436,0,1.408.009,2.816,0,4.224a1.016,1.016,0,0,1-1.114,1.167c-.818.029-1.639.027-2.457,0s-1.144-.378-1.149-1.21c-.011-1.92,0-3.84,0-5.76v-.868H46.22v.791c0,1.92,0,3.84,0,5.759,0,.953-.326,1.277-1.294,1.292-.716.011-1.434.013-2.15,0-.92-.018-1.252-.342-1.258-1.257-.011-1.894,0-3.788,0-5.683v-.89H39.638v1.445c0,1.741.007,3.482,0,5.222-.005.782-.335,1.131-1.111,1.158-.793.028-1.587.022-2.38,0-.874-.021-1.18-.343-1.184-1.237-.007-2.173,0-4.346,0-6.581H33.115c-.014.263-.039.533-.04.8,0,1.894,0,3.788,0,5.683,0,1.016-.316,1.323-1.332,1.336-.691.009-1.382.011-2.073,0-.975-.016-1.283-.327-1.285-1.294,0-1.92,0-3.839,0-5.759v-.788H26.554c-.013.26-.037.529-.037.8,0,1.869,0,3.737,0,5.606,0,1.12-.3,1.429-1.4,1.44-.691.007-1.383.013-2.073,0-.919-.02-1.248-.351-1.251-1.261-.007-2.173,0-4.346,0-6.571H19.936v3.743c0,.973.011,1.946,0,2.918-.012.771-.352,1.138-1.118,1.165-.843.03-1.69.025-2.534,0a1.007,1.007,0,0,1-1.072-1.131c0-.1,0-.2,0-.307q0-20.619,0-41.238c0-1.77.862-2.574,2.63-2.472a2.031,2.031,0,0,1,2.092,2.167c.026,1.406.006,2.813.006,4.277H21.79c0-1.312.052-2.636-.012-3.953-.1-2.14,1.489-2.845,3.372-2.366a2,2,0,0,1,1.359,2.1c.023,1.152,0,2.3.007,3.456,0,.249.021.5.034.78h1.83v-1.967c0-.717,0-1.434,0-2.15a2.355,2.355,0,0,1,3.618-2.1,2.064,2.064,0,0,1,1.073,1.98c.005,1.152,0,2.3,0,3.456,0,.249.021.5.034.782h1.846c0-.515,0-1.014,0-1.513,0-1.024-.02-2.049.023-3.071a1.885,1.885,0,0,1,1.727-1.841c1.959-.274,2.929.554,2.933,2.5,0,1.278,0,2.555,0,3.9h1.874v-1.8c0-.691.029-1.384-.005-2.073-.109-2.195,1.34-2.849,3.223-2.482a1.937,1.937,0,0,1,1.483,1.992c.02,1.432,0,2.865,0,4.361h1.863v-1.862c0-.691.028-1.384-.005-2.073-.1-2.129,1.436-2.856,3.364-2.379a1.992,1.992,0,0,1,1.366,2.093c.015,1.4,0,2.8,0,4.244h1.856c0-1.152.018-2.316-.006-3.48a2.964,2.964,0,0,1,.813-2.6c.17-.147.141-.566.143-.861q.168-20.81.331-41.62c.048-5.3.15-10.6.263-15.893.033-1.558.182-3.115.29-4.671a1.44,1.44,0,0,1,.172-.735,1.211,1.211,0,0,1,.726-.506.827.827,0,0,1,.627.5,9.217,9.217,0,0,1,.316,2.038c.323,12.46.664,24.92.924,37.381.207,9.9.31,19.809.461,29.714,0,.227.022.453.036.729h1.492v-1.79c0-.768,0-1.536,0-2.3a2.078,2.078,0,0,1,2.42-2.359,2.039,2.039,0,0,1,2.272,2.215c.032,1.125.007,2.252.008,3.379v.867h1.885c0-.257,0-.524,0-.791,0-1.229-.019-2.458.012-3.686a1.992,1.992,0,0,1,2.243-1.984c1.439-.025,2.34.653,2.4,1.9.057,1.226.023,2.457.028,3.685,0,.275,0,.551,0,.78a6.92,6.92,0,0,1,1.643.416c.188.1.189.649.188.993,0,.75-.056.765-1.774.934v26.348c1.78.228,1.78.228,1.785,1.151,0,.888,0,.888-1.793,1.142v4.812h.821q19.2,0,38.4.02a1.1,1.1,0,0,0,1.186-.789,8.85,8.85,0,0,0,.32-5.21q-2.476-13.146-5.033-26.276a1.809,1.809,0,0,0-.741-1.037A74.257,74.257,0,0,1,87.858,247.4c-3.667-4.953-6.616-10.282-7.906-16.371-1.542-7.279-.9-14.264,3.315-20.619a24.015,24.015,0,0,1,13.278-10.235c7.162-2.139,13.527-.5,19.046,4.5.511.463.981.973,1.445,1.484.445.492.857,1.014,1.267,1.5m-13.575,23.37a4.95,4.95,0,0,0,.5.154c1.047.207,2.092.428,3.145.6.4.065.642-.113.45-.472-.9-.105-1.7-.193-2.512-.3a3.548,3.548,0,0,1-3.4-3.11,42.336,42.336,0,0,1-.3-4.378,9.72,9.72,0,0,1,1.347-.182c1.969.036,3.937.131,5.906.148a5.148,5.148,0,0,0,3.729-1.511,3.877,3.877,0,0,1,2.022-.9,17.063,17.063,0,0,1,3.219-.045,11.632,11.632,0,0,1,8.732,4.161,13.521,13.521,0,0,1,3.117,9.461c-.055,1.917-.572,2.808-2.406,3.22a10.892,10.892,0,0,0-3.8,1.714,4.038,4.038,0,0,1-2.585.513c-.476-.022-.708-.283-.736-.793a6.152,6.152,0,0,1,.641-2.951,31.516,31.516,0,0,0,1.465-4.086,11.163,11.163,0,0,0,.217-2.136l-.271-.051a8.963,8.963,0,0,0-.442,1.39,12.6,12.6,0,0,1-2.25,5.4,4.385,4.385,0,0,0-.524,3.176,1.184,1.184,0,0,0,.682.832c1.5.376,3,.568,4.4-.453a12.284,12.284,0,0,1,2.187-1.206c1.043-.473,2.324-.434,3.135-1.672.06.479.091.753.128,1.026a41.572,41.572,0,0,0,1.844,8.521,34.786,34.786,0,0,1,2.089,9.243c.047.673.1,1.346.152,2.127.312-.237.526-.373.711-.543,2.11-1.937,4.3-3.793,6.3-5.838a53.059,53.059,0,0,0,10.787-15.64,28.376,28.376,0,0,0,2.307-16.025c-1.019-6.695-4.66-11.767-10.2-15.472a16.925,16.925,0,0,0-15.283-2.322c-4.739,1.554-8,4.889-10.429,9.133-.133.233-.277.459-.335.555-1.163-1.568-2.221-3.206-3.488-4.663A16.632,16.632,0,0,0,96.02,202.99a22.635,22.635,0,0,0-12.166,11.46c-2.393,4.906-2.608,10.093-1.626,15.369a36.162,36.162,0,0,0,5.384,12.855,68.265,68.265,0,0,0,17.737,18.3c.587.427,1.182.843,1.839,1.31.051-1.15.071-2.17.147-3.187.294-3.911,1.022-7.7,3.186-11.076a15.724,15.724,0,0,0,.872-1.618,14.385,14.385,0,0,0,1.379-6.544,7.067,7.067,0,0,0-3.747-6.2c-1.086-.663-2.292-1.125-3.408-1.742a4.323,4.323,0,0,1-.877-.9l-.013.019m-71.6,60.637h1.791V265.3H33.126Zm182.431-.023h1.773V265.287h-1.773Zm-39.449.007h1.8V265.294h-1.8ZM209,291.649h1.773V265.286H209Zm-143.006.032h1.8V265.3h-1.8ZM41.477,265.3H39.694v26.4h1.784Zm154.374,26.348h1.755V265.288h-1.755Zm-174.1-26.344H19.991V291.7h1.758Zm4.81,26.374h1.763V265.295H26.559Zm175.874-.031h1.761V265.289h-1.761Zm-13.17,0h1.757V265.287h-1.757Zm-4.807-26.342h-1.781v26.37h1.781Zm-13.131,0h-1.775v26.367h1.775Zm-110.113,0h-1.76v26.386h1.76Zm-6.587,0H52.86v26.4h1.765Zm-6.585,26.4V265.3h-1.77v26.425c.485,0,.918,0,1.351,0,.123,0,.247-.014.418-.024m72.764,7.045.279-.1a171.522,171.522,0,0,0,.412-17.855,27.518,27.518,0,0,0-.784,3.071c-.825,4.428-.624,8.9-.608,13.372a1.982,1.982,0,0,0,.158.821,3.761,3.761,0,0,0,.542.689m57.09-4.817h-1.8v4.807h1.8Zm-110.1-.016H66v4.839h1.8Zm101.76,4.807h1.753v-4.8h-1.753Zm-108.337-4.8H59.445v4.825h1.773Zm52.724-70.433-1.205.726a1.72,1.72,0,0,0,1.917,1.339l-.712-2.065" transform="translate(-10.138 -128.444)" fill="#fcef01"></path>
      <path id="Path_31" data-name="Path 31" d="M146.608,3.019c2.727,2.023,5.427,4.047,8.147,6.042C168.8,19.36,182.819,29.7,196.911,39.933q19.6,14.232,38.451,29.424c.1.08.193.165.439.376-1.267-.036-2.3.3-3.444-.448C218.015,59.905,204,50.062,190.122,40.009,175.853,29.671,161.473,19.487,147.153,9.22a.8.8,0,0,0-1.121,0c-15.73,11.283-31.5,22.507-47.2,33.839-12.462,9-25.08,17.762-37.947,26.168a2.816,2.816,0,0,1-2.2.568,10.134,10.134,0,0,0-1.269-.082c1.757-1.419,3.4-2.748,5.042-4.07C76.718,54.189,91.483,43.4,106.291,32.667c13.252-9.607,26.373-19.394,39.553-29.1.245-.181.5-.355.764-.547" transform="translate(-38.276 -2.013)" fill="#fcef01"></path>
      <path id="Path_32" data-name="Path 32" d="M431.761,0h20.277c-.314,11.994-.627,23.948-.942,35.988a1.339,1.339,0,0,1-.957-1.346c-.36-9.408-.764-18.816-1.143-28.224-.047-1.171-.006-2.345-.006-3.576H434.348c-.219,6.611-.439,13.217-.661,19.915-1.013-.588-1.689-1.1-1.688-2.448,0-6.448-.144-12.9-.237-19.343,0-.3,0-.6,0-.966" transform="translate(-287.841 0)" fill="#fbee01"></path>
      <path id="Path_33" data-name="Path 33" d="M283.746,441.35a5.554,5.554,0,0,0-4.027-1.027,3.812,3.812,0,0,0-2.692,1.587c-.393.569-.762.579-1.237.174-3.054-2.609-4.163-5.471-2.679-9.089a20.35,20.35,0,0,1,1.335-2.749,29.028,29.028,0,0,0,4.219-15.384c0-.1.011-.2.017-.306.585.139.6.136.712.828.579,3.58,1.12,7.166,1.729,10.74.84,4.933,1.729,9.858,2.6,14.786a4.379,4.379,0,0,1,.028.44" transform="translate(-181.64 -276.373)" fill="#fcf001"></path>
      <path id="Path_34" data-name="Path 34" d="M356.138,466.685a25.01,25.01,0,0,1,1.289-7.954q1.485-5.187,2.991-10.369c.055-.192.12-.381.2-.635a8.212,8.212,0,0,1,4.086,3.362,8.3,8.3,0,0,1-.928,10.923,20.418,20.418,0,0,1-7.639,4.673" transform="translate(-237.42 -298.487)" fill="#fcf001"></path>
      <path id="Path_35" data-name="Path 35" d="M251.179,473.217a5.77,5.77,0,0,1-4.491,2.241,10.281,10.281,0,0,1-10.436-7.056,10.714,10.714,0,0,1,.656-7.971,3.29,3.29,0,0,1,.278-.457,3.249,3.249,0,0,1,.272-.292,2.033,2.033,0,0,1,.053.411c-.458,3.932,1.9,6.038,4.9,7.186a11.04,11.04,0,0,0,4.282.68.991.991,0,0,1,.747.325c.572.872,1,1.842,1.626,2.672a27.014,27.014,0,0,0,2.11,2.261" transform="translate(-157.178 -306.457)" fill="#fcef01"></path>
      <path id="Path_36" data-name="Path 36" d="M287.688,499.558a3.1,3.1,0,0,1,2.389-3.458,3.524,3.524,0,0,1,4.081,2.637c.117.539,0,.831-.623.826-1.943-.015-3.886-.005-5.847-.005" transform="translate(-191.75 -330.689)" fill="#fbee02"></path>
      <path id="Path_37" data-name="Path 37" d="M283.589,307.573l-.111-.007.016-.072.082.1.013-.019" transform="translate(-188.986 -204.998)" fill="#fcef01"></path>
      <path id="Path_38" data-name="Path 38" d="M7.068,581.492l-3,3.626V592H0V569.968H4.072v9.788a12.536,12.536,0,0,1,1.368-1.982L12.4,569.2l4.471.384L9.85,578.112,17.132,592H12.308Z" transform="translate(0 -379.469)" fill="#fcef01"></path>
      <path id="Path_39" data-name="Path 39" d="M68.208,572.956q1.736,2.6,1.736,7.537,0,5.854-2.036,9.242t-7.076,3.388a17.707,17.707,0,0,1-3.088-.292l.307-3.826a12.567,12.567,0,0,0,2.551.292,4.635,4.635,0,0,0,3.826-1.5,8.25,8.25,0,0,0,1.506-4.418,7.092,7.092,0,0,1-7.306.438,5.921,5.921,0,0,1-2.3-2.4,8.677,8.677,0,0,1,0-7.568,6.318,6.318,0,0,1,2.481-2.574,7.377,7.377,0,0,1,3.749-.93q3.918,0,5.655,2.6m-2.151,6.692a14.72,14.72,0,0,0-.415-3.4,3.465,3.465,0,0,0-1.091-1.851,3.08,3.08,0,0,0-1.967-.584,2.756,2.756,0,0,0-2.374.968,4.031,4.031,0,0,0-.714,2.459,4.7,4.7,0,0,0,.438,2.128,2.954,2.954,0,0,0,1.191,1.291,3.423,3.423,0,0,0,1.706.422,3.807,3.807,0,0,0,3.227-1.429" transform="translate(-36.97 -380.237)" fill="#fcef01"></path>
      <path id="Path_40" data-name="Path 40" d="M138.244,571.5h4.072v18.269H150.8v3.765H138.244Z" transform="translate(-92.163 -381.006)" fill="#fcef01"></path>
      <path id="Path_41" data-name="Path 41" d="M192.539,592.333a5.913,5.913,0,0,1,2.282,2.512,7.739,7.739,0,0,1,.738,3.365,8.986,8.986,0,0,1-.369,2.5l-10.095.077A3.867,3.867,0,0,0,186.561,603a4.7,4.7,0,0,0,2.82.784,11.171,11.171,0,0,0,2.182-.23,14,14,0,0,0,2.3-.676l.784,3.181a13.45,13.45,0,0,1-2.766.768,16.979,16.979,0,0,1-3.042.307,8.136,8.136,0,0,1-5.8-1.944q-2.066-1.943-2.067-5.985a9.187,9.187,0,0,1,.914-4.279,6.079,6.079,0,0,1,2.643-2.658,8.906,8.906,0,0,1,4.157-.9,7.167,7.167,0,0,1,3.849.96m-.914,5.263a2.994,2.994,0,0,0-.745-2.066,2.963,2.963,0,0,0-2.328-.838,3.294,3.294,0,0,0-2.474.9,4.325,4.325,0,0,0-1.106,2.466l6.638-.061a3.97,3.97,0,0,0,.015-.4" transform="translate(-120.651 -394.251)" fill="#fcef01"></path>
      <path id="Path_42" data-name="Path 42" d="M234.763,571.827a2.266,2.266,0,0,1-.837-.838,2.328,2.328,0,0,1-.307-1.191,2.3,2.3,0,0,1,.307-1.176,2.212,2.212,0,0,1,.837-.83,2.382,2.382,0,0,1,1.191-.3,2.35,2.35,0,0,1,1.175.3,2.156,2.156,0,0,1,.83.83,2.346,2.346,0,0,1,.3,1.176,2.373,2.373,0,0,1-.3,1.191,2.207,2.207,0,0,1-.83.838,2.3,2.3,0,0,1-1.175.307,2.334,2.334,0,0,1-1.191-.307m-.868,4.072h4.072v14.966h-4.072Z" transform="translate(-155.746 -378.332)" fill="#fcef01"></path>
      <path id="Path_43" data-name="Path 43" d="M256.667,606.061l1.029-3.288a11.214,11.214,0,0,0,4.226,1.137q2.474-.015,2.489-1.536a1.133,1.133,0,0,0-.353-.868,2.551,2.551,0,0,0-.884-.522q-.53-.192-1.452-.423a16.093,16.093,0,0,1-2.3-.753,3.857,3.857,0,0,1-1.536-1.245,3.774,3.774,0,0,1-.653-2.336q.046-4.717,5.654-4.717a12.226,12.226,0,0,1,4.963.922l-.875,3.35a10.207,10.207,0,0,0-3.78-.83,3.445,3.445,0,0,0-1.506.277,1.017,1.017,0,0,0-.538.891.837.837,0,0,0,.307.653,2.527,2.527,0,0,0,.768.446q.461.177,1.306.422a16.28,16.28,0,0,1,2.382.838,4.369,4.369,0,0,1,1.652,1.352,3.908,3.908,0,0,1,.7,2.435q0,4.994-6.346,4.994a13.35,13.35,0,0,1-5.255-1.2" transform="translate(-171.112 -394.343)" fill="#fcef01"></path>
      <path id="Path_44" data-name="Path 44" d="M312.044,608.274a14.513,14.513,0,0,1-1.06-2.8,3.331,3.331,0,0,1-.814,1.137,4.9,4.9,0,0,1-1.613.991,6.326,6.326,0,0,1-2.366.407,6.62,6.62,0,0,1-3.549-.845,4.775,4.775,0,0,1-1.928-2.19,7.429,7.429,0,0,1-.576-2.958v-9.3h4.072v8.513a4.678,4.678,0,0,0,.661,2.635,2.779,2.779,0,0,0,2.489.991,3.169,3.169,0,0,0,1.636-.438,3.1,3.1,0,0,0,1.183-1.275,4.169,4.169,0,0,0,.438-1.959v-8.482h4.01v8.666a13.265,13.265,0,0,0,.177,2.32,9.429,9.429,0,0,0,.461,1.721,17.86,17.86,0,0,0,.791,1.721Z" transform="translate(-200.092 -395.142)" fill="#fcef01"></path>
      <path id="Path_45" data-name="Path 45" d="M364.886,591.326a6.07,6.07,0,0,1,1.583.215l-.43,3.934a7.8,7.8,0,0,0-.83-.046,5.492,5.492,0,0,0-4.272,1.8l-.015,9.527h-4.087l.031-14.966h3.426l.507,2.566q1.352-3.027,4.087-3.027" transform="translate(-237.891 -394.22)" fill="#fcef01"></path>
      <path id="Path_46" data-name="Path 46" d="M401.448,592.333a5.91,5.91,0,0,1,2.282,2.512,7.739,7.739,0,0,1,.738,3.365,8.985,8.985,0,0,1-.369,2.5L394,600.792A3.864,3.864,0,0,0,395.472,603a4.7,4.7,0,0,0,2.819.784,11.169,11.169,0,0,0,2.182-.23,14.005,14.005,0,0,0,2.3-.676l.784,3.181a13.449,13.449,0,0,1-2.766.768,16.98,16.98,0,0,1-3.043.307,8.137,8.137,0,0,1-5.8-1.944q-2.066-1.943-2.066-5.985a9.187,9.187,0,0,1,.914-4.279,6.077,6.077,0,0,1,2.643-2.658,8.9,8.9,0,0,1,4.156-.9,7.164,7.164,0,0,1,3.849.96m-.914,5.263a3,3,0,0,0-.745-2.066,2.963,2.963,0,0,0-2.328-.838,3.3,3.3,0,0,0-2.474.9,4.325,4.325,0,0,0-1.106,2.466l6.638-.061a3.881,3.881,0,0,0,.015-.4" transform="translate(-259.925 -394.251)" fill="#fcef01"></path>
      <path id="Path_47" data-name="Path 47" d="M471.132,591.725a8.54,8.54,0,0,1-3.519-3.849,14.045,14.045,0,0,1-1.206-6.093,12.984,12.984,0,0,1,1.383-6.208,9.178,9.178,0,0,1,4.026-3.926,13.89,13.89,0,0,1,6.361-1.345,20.381,20.381,0,0,1,4.978.676l-1.06,3.734a10.2,10.2,0,0,0-1.928-.4,17.592,17.592,0,0,0-2.205-.154,8.133,8.133,0,0,0-3.941.891,5.892,5.892,0,0,0-2.489,2.574,8.827,8.827,0,0,0-.853,4.034,10.009,10.009,0,0,0,.745,4.056,5.549,5.549,0,0,0,2.182,2.574,6.456,6.456,0,0,0,3.45.884,18.439,18.439,0,0,0,5.409-1.06l.953,3.734a17.2,17.2,0,0,1-3.265.891,20.017,20.017,0,0,1-3.449.307,11.052,11.052,0,0,1-5.57-1.321" transform="translate(-310.94 -380.207)" fill="#fcef01"></path>
      <rect id="Rectangle_9" data-name="Rectangle 9" width="4.072" height="23.294" transform="translate(176.041 189.239)" fill="#fcef01"></rect>
      <path id="Path_48" data-name="Path 48" d="M564.7,608.274a14.514,14.514,0,0,1-1.06-2.8,3.329,3.329,0,0,1-.814,1.137,4.9,4.9,0,0,1-1.613.991,6.326,6.326,0,0,1-2.366.407,6.621,6.621,0,0,1-3.549-.845,4.773,4.773,0,0,1-1.928-2.19,7.427,7.427,0,0,1-.576-2.958v-9.3h4.072v8.513a4.679,4.679,0,0,0,.661,2.635,2.78,2.78,0,0,0,2.489.991,3.167,3.167,0,0,0,1.636-.438,3.1,3.1,0,0,0,1.184-1.275,4.174,4.174,0,0,0,.438-1.959v-8.482h4.01v8.666a13.271,13.271,0,0,0,.177,2.32,9.439,9.439,0,0,0,.461,1.721,17.889,17.889,0,0,0,.791,1.721Z" transform="translate(-368.53 -395.142)" fill="#fcef01"></path>
      <path id="Path_49" data-name="Path 49" d="M622.029,576.591a6.1,6.1,0,0,1,2.374,2.643,9.03,9.03,0,0,1,.822,3.964,10.389,10.389,0,0,1-.837,4.341,6.244,6.244,0,0,1-2.5,2.835,7.7,7.7,0,0,1-4.041,1q-3.273,0-4.21-2.643l-.738,2.29h-3.38l-.031-23.294h4.087v10.065a6.306,6.306,0,0,1,2.051-1.529,6.173,6.173,0,0,1,2.727-.607,6.966,6.966,0,0,1,3.672.937m-1.959,10.241a6.137,6.137,0,0,0,.93-3.665,4.5,4.5,0,0,0-.975-3.065,3.454,3.454,0,0,0-2.743-1.114,5.292,5.292,0,0,0-1.975.346,6.206,6.206,0,0,0-1.728,1.083v1.46l.015,1.8a5.161,5.161,0,0,0,.538,2.482,3.5,3.5,0,0,0,1.429,1.467,4.1,4.1,0,0,0,1.967.476,2.984,2.984,0,0,0,2.543-1.267" transform="translate(-406.33 -378.486)" fill="#fcef01"></path>
      <path id="Path_50" data-name="Path 50" d="M35.32,664.493h.69v3.4h4.022v-3.4h.685v7.385h-.685V668.51H36.009v3.368h-.69Z" transform="translate(-23.546 -442.998)" fill="#fff"></path>
      <path id="Path_51" data-name="Path 51" d="M57.311,669.118l-2.323-4.625h.778l1.725,3.523c.021.044.048.111.082.2s.067.173.1.255h.015a2.551,2.551,0,0,1,.191-.453l1.8-3.523h.726L58,669.1v2.781h-.69Z" transform="translate(-36.659 -442.998)" fill="#fff"></path>
      <path id="Path_52" data-name="Path 52" d="M74.549,664.524h2.045a3.924,3.924,0,0,1,2.786.883,3.562,3.562,0,0,1,.937,2.711,4.065,4.065,0,0,1-.474,2.006,3.251,3.251,0,0,1-1.334,1.313,4.154,4.154,0,0,1-1.993.461l-1.967.01Zm1.978,6.762a3.482,3.482,0,0,0,1.658-.368,2.457,2.457,0,0,0,1.051-1.071,3.682,3.682,0,0,0,.361-1.7q0-3.007-3.023-3.008l-1.334.01v6.134Z" transform="translate(-49.7 -443.019)" fill="#fff"></path>
      <path id="Path_53" data-name="Path 53" d="M100.248,671.878l-2.106-3.224H97.008v3.224h-.69v-7.385h2.029a2.948,2.948,0,0,1,1.215.229,1.73,1.73,0,0,1,.786.677,2.049,2.049,0,0,1,.275,1.092,2.008,2.008,0,0,1-.458,1.341,2.267,2.267,0,0,1-1.236.734l2.2,3.312Zm-2.163-3.842a2.113,2.113,0,0,0,1.339-.381,1.343,1.343,0,0,0,.484-1.123,1.285,1.285,0,0,0-.438-1.079,2.032,2.032,0,0,0-1.272-.342L97,665.116v2.92Z" transform="translate(-64.212 -442.998)" fill="#fff"></path>
      <path id="Path_54" data-name="Path 54" d="M114.862,671.289a3.2,3.2,0,0,1-1.2-1.342,4.418,4.418,0,0,1-.422-1.973,4.511,4.511,0,0,1,.422-1.993,3.213,3.213,0,0,1,1.2-1.357,3.366,3.366,0,0,1,1.821-.487,3.494,3.494,0,0,1,1.862.487,3.18,3.18,0,0,1,1.218,1.357,4.465,4.465,0,0,1,.417,1.993,4.4,4.4,0,0,1-.425,1.973,3.184,3.184,0,0,1-1.218,1.342,3.506,3.506,0,0,1-1.854.481,3.4,3.4,0,0,1-1.821-.481m3.291-.551a2.485,2.485,0,0,0,.948-1.1,4.41,4.41,0,0,0,0-3.34,2.548,2.548,0,0,0-.95-1.115,2.665,2.665,0,0,0-1.465-.4,2.608,2.608,0,0,0-1.447.4,2.531,2.531,0,0,0-.937,1.118,4.057,4.057,0,0,0-.324,1.679,3.977,3.977,0,0,0,.324,1.661,2.484,2.484,0,0,0,.937,1.1,2.643,2.643,0,0,0,1.447.389,2.712,2.712,0,0,0,1.47-.389" transform="translate(-75.492 -442.762)" fill="#fff"></path>
      <path id="Path_55" data-name="Path 55" d="M138.575,665.116h-2.132v-.623h4.949v.623H139.26v6.762h-.685Z" transform="translate(-90.963 -442.998)" fill="#fff"></path>
      <path id="Path_56" data-name="Path 56" d="M154.907,664.493h.69v3.4h4.022v-3.4h.685v7.385h-.685V668.51H155.6v3.368h-.69Z" transform="translate(-103.272 -442.998)" fill="#fff"></path>
      <path id="Path_57" data-name="Path 57" d="M176.847,664.493h3.6v.623h-2.915v2.709h2.6v.623h-2.6v2.807h3.08v.623h-3.77Z" transform="translate(-117.899 -442.998)" fill="#fff"></path>
      <path id="Path_58" data-name="Path 58" d="M196.706,671.878l-2.106-3.224h-1.133v3.224h-.69v-7.385h2.029a2.948,2.948,0,0,1,1.215.229,1.73,1.73,0,0,1,.786.677,2.049,2.049,0,0,1,.275,1.092,2.008,2.008,0,0,1-.458,1.341,2.267,2.267,0,0,1-1.236.734l2.2,3.312Zm-2.163-3.842a2.113,2.113,0,0,0,1.339-.381,1.343,1.343,0,0,0,.484-1.123,1.285,1.285,0,0,0-.438-1.079,2.032,2.032,0,0,0-1.272-.342l-1.195.005v2.92Z" transform="translate(-128.518 -442.998)" fill="#fff"></path>
      <path id="Path_59" data-name="Path 59" d="M213.686,670.194h-3.528l-.613,1.684h-.762l2.807-7.385h.685l2.807,7.385H214.3Zm-.232-.623-1.406-3.832-.057-.229q-.036-.147-.062-.265h-.021c-.007.051-.026.139-.057.263a1.947,1.947,0,0,1-.067.232l-1.4,3.832Z" transform="translate(-139.189 -442.998)" fill="#fff"></path>
      <path id="Path_60" data-name="Path 60" d="M231.186,664.493h2.029a2.758,2.758,0,0,1,1.226.253,1.779,1.779,0,0,1,.791.747,2.443,2.443,0,0,1,.275,1.2,2.288,2.288,0,0,1-.319,1.221,2.117,2.117,0,0,1-.886.8,2.859,2.859,0,0,1-1.288.281h-1.138v2.879h-.69Zm1.767,3.883a2.032,2.032,0,0,0,1.355-.415,1.514,1.514,0,0,0,.489-1.223,1.568,1.568,0,0,0-.443-1.236,1.888,1.888,0,0,0-1.288-.392l-1.195.005v3.26Z" transform="translate(-154.125 -442.998)" fill="#fff"></path>
      <path id="Path_61" data-name="Path 61" d="M248.7,669.118l-2.323-4.625h.778l1.725,3.523c.021.044.048.111.082.2s.067.173.1.255h.015a2.55,2.55,0,0,1,.191-.453l1.8-3.523h.726l-2.405,4.6v2.781h-.69Z" transform="translate(-164.251 -442.998)" fill="#fff"></path>
      <path id="Path_62" data-name="Path 62" d="M275.648,677.358a1.23,1.23,0,0,1-.621-.16,1.2,1.2,0,0,1-.445-.435,1.154,1.154,0,0,1-.165-.6,1.18,1.18,0,0,1,.165-.613,1.227,1.227,0,0,1,.448-.443,1.239,1.239,0,0,1,1.231,0,1.176,1.176,0,0,1,.438.443,1.224,1.224,0,0,1,.16.615,1.178,1.178,0,0,1-.6,1.04,1.207,1.207,0,0,1-.613.16" transform="translate(-182.946 -449.961)" fill="#fff"></path>
      <path id="Path_63" data-name="Path 63" d="M295.971,664.524h2.045a3.924,3.924,0,0,1,2.786.883,3.562,3.562,0,0,1,.937,2.711,4.065,4.065,0,0,1-.474,2.006,3.251,3.251,0,0,1-1.334,1.313,4.154,4.154,0,0,1-1.993.461l-1.967.01Zm1.978,6.762a3.482,3.482,0,0,0,1.658-.368,2.457,2.457,0,0,0,1.051-1.071,3.682,3.682,0,0,0,.361-1.7q0-3.007-3.023-3.008l-1.334.01v6.134Z" transform="translate(-197.315 -443.019)" fill="#fff"></path>
      <path id="Path_64" data-name="Path 64" d="M320.4,670.194h-3.528l-.613,1.684H315.5l2.807-7.385h.685l2.807,7.385h-.777Zm-.232-.623-1.406-3.832-.057-.229q-.036-.147-.062-.265h-.021c-.007.051-.026.139-.057.263a1.882,1.882,0,0,1-.067.232l-1.4,3.832Z" transform="translate(-210.335 -442.998)" fill="#fff"></path>
      <path id="Path_65" data-name="Path 65" d="M337.94,669.118l-2.323-4.625h.778l1.725,3.523c.021.044.048.111.082.2s.067.173.1.255h.015a2.553,2.553,0,0,1,.191-.453l1.8-3.523h.726l-2.405,4.6v2.781h-.69Z" transform="translate(-223.746 -442.998)" fill="#fff"></path>
      <path id="Path_66" data-name="Path 66" d="M355.35,671.27a2.82,2.82,0,0,1-1.1-1.29,4.956,4.956,0,0,1-.381-2.042,4.561,4.561,0,0,1,.438-2.081,2.988,2.988,0,0,1,1.274-1.316,4.2,4.2,0,0,1,2.016-.451,6.652,6.652,0,0,1,1.669.227l-.19.654a3.558,3.558,0,0,0-.737-.155,7.1,7.1,0,0,0-.845-.057,3.066,3.066,0,0,0-1.558.376,2.436,2.436,0,0,0-.991,1.081,3.842,3.842,0,0,0-.34,1.679,4.3,4.3,0,0,0,.306,1.7,2.366,2.366,0,0,0,.9,1.092,2.563,2.563,0,0,0,1.414.379,6.19,6.19,0,0,0,1.978-.407l.226.613a6.925,6.925,0,0,1-1.115.311,6.183,6.183,0,0,1-1.208.126,3.285,3.285,0,0,1-1.748-.443" transform="translate(-235.911 -442.73)" fill="#fff"></path>
      <path id="Path_67" data-name="Path 67" d="M377.477,670.194h-3.528l-.613,1.684h-.762l2.807-7.385h.685l2.807,7.385h-.777Zm-.232-.623-1.406-3.832-.057-.229q-.036-.147-.062-.265H375.7c-.007.051-.026.139-.057.263a1.884,1.884,0,0,1-.067.232l-1.4,3.832Z" transform="translate(-248.384 -442.998)" fill="#fff"></path>
      <path id="Path_68" data-name="Path 68" d="M398.906,671.878l-2.107-3.224h-1.133v3.224h-.69v-7.385h2.029a2.948,2.948,0,0,1,1.215.229,1.728,1.728,0,0,1,.786.677,2.05,2.05,0,0,1,.276,1.092,2.008,2.008,0,0,1-.459,1.341,2.267,2.267,0,0,1-1.236.734l2.2,3.312Zm-2.163-3.842a2.113,2.113,0,0,0,1.339-.381,1.343,1.343,0,0,0,.484-1.123,1.287,1.287,0,0,0-.438-1.079,2.035,2.035,0,0,0-1.272-.342l-1.195.005v2.92Z" transform="translate(-263.319 -442.998)" fill="#fff"></path>
      <path id="Path_69" data-name="Path 69" d="M413.208,664.493h3.6v.623H413.9v2.709h2.6v.623h-2.6v2.807h3.08v.623h-3.77Z" transform="translate(-275.474 -442.998)" fill="#fff"></path>
      <path id="Path_70" data-name="Path 70" d="M438.836,677.358a1.231,1.231,0,0,1-.621-.16,1.2,1.2,0,0,1-.445-.435,1.156,1.156,0,0,1-.165-.6,1.183,1.183,0,0,1,.165-.613,1.229,1.229,0,0,1,.448-.443,1.206,1.206,0,0,1,.618-.165,1.193,1.193,0,0,1,.613.162,1.176,1.176,0,0,1,.438.443,1.224,1.224,0,0,1,.16.615,1.178,1.178,0,0,1-.6,1.04,1.206,1.206,0,0,1-.613.16" transform="translate(-291.738 -449.961)" fill="#fff"></path>
      <path id="Path_71" data-name="Path 71" d="M459.47,671.3a2.874,2.874,0,0,1-1.2-1.272,4.5,4.5,0,0,1-.412-2.009,4.63,4.63,0,0,1,.445-2.114,3.044,3.044,0,0,1,1.3-1.336,4.265,4.265,0,0,1,2.047-.459,7.877,7.877,0,0,1,1.009.07q.535.069,1.02.168l-.206.618q-.453-.088-.971-.152a7.64,7.64,0,0,0-.945-.065,3.254,3.254,0,0,0-1.617.376,2.451,2.451,0,0,0-1.02,1.1,4.485,4.485,0,0,0-.01,3.45,2.428,2.428,0,0,0,.986,1.084,3.066,3.066,0,0,0,1.558.373,3.447,3.447,0,0,0,.853-.106,2.749,2.749,0,0,0,.734-.3V668.5h-1.854v-.623h2.539l.005,3.224a4.433,4.433,0,0,1-1.125.463,4.846,4.846,0,0,1-1.249.165,3.819,3.819,0,0,1-1.887-.438" transform="translate(-305.242 -442.74)" fill="#fff"></path>
      <path id="Path_72" data-name="Path 72" d="M484.534,671.878l-2.107-3.224h-1.133v3.224h-.69v-7.385h2.029a2.948,2.948,0,0,1,1.215.229,1.728,1.728,0,0,1,.786.677,2.05,2.05,0,0,1,.276,1.092,2.008,2.008,0,0,1-.459,1.341,2.267,2.267,0,0,1-1.236.734l2.2,3.312Zm-2.163-3.842a2.113,2.113,0,0,0,1.339-.381,1.343,1.343,0,0,0,.484-1.123,1.287,1.287,0,0,0-.437-1.079,2.035,2.035,0,0,0-1.272-.342l-1.2.005v2.92Z" transform="translate(-320.405 -442.998)" fill="#fff"></path>
      <path id="Path_73" data-name="Path 73" d="M499.148,671.289a3.191,3.191,0,0,1-1.2-1.342,4.415,4.415,0,0,1-.423-1.973,4.508,4.508,0,0,1,.423-1.993,3.209,3.209,0,0,1,1.2-1.357,3.366,3.366,0,0,1,1.821-.487,3.494,3.494,0,0,1,1.862.487,3.18,3.18,0,0,1,1.218,1.357,4.465,4.465,0,0,1,.417,1.993,4.4,4.4,0,0,1-.425,1.973,3.184,3.184,0,0,1-1.218,1.342,3.505,3.505,0,0,1-1.854.481,3.4,3.4,0,0,1-1.821-.481m3.291-.551a2.484,2.484,0,0,0,.948-1.1,4.41,4.41,0,0,0,0-3.34,2.547,2.547,0,0,0-.95-1.115,2.665,2.665,0,0,0-1.465-.4,2.607,2.607,0,0,0-1.447.4,2.528,2.528,0,0,0-.937,1.118,4.056,4.056,0,0,0-.324,1.679,3.977,3.977,0,0,0,.324,1.661,2.482,2.482,0,0,0,.937,1.1,2.642,2.642,0,0,0,1.447.389,2.712,2.712,0,0,0,1.47-.389" transform="translate(-331.684 -442.762)" fill="#fff"></path>
      <path id="Path_74" data-name="Path 74" d="M523.127,671.289a3.191,3.191,0,0,1-1.2-1.342,4.413,4.413,0,0,1-.423-1.973,4.506,4.506,0,0,1,.423-1.993,3.208,3.208,0,0,1,1.2-1.357,3.366,3.366,0,0,1,1.821-.487,3.494,3.494,0,0,1,1.862.487,3.18,3.18,0,0,1,1.218,1.357,4.466,4.466,0,0,1,.417,1.993,4.4,4.4,0,0,1-.425,1.973,3.184,3.184,0,0,1-1.218,1.342,3.5,3.5,0,0,1-1.854.481,3.4,3.4,0,0,1-1.821-.481m3.291-.551a2.485,2.485,0,0,0,.948-1.1,4.41,4.41,0,0,0,0-3.34,2.547,2.547,0,0,0-.95-1.115,2.664,2.664,0,0,0-1.465-.4,2.608,2.608,0,0,0-1.447.4,2.528,2.528,0,0,0-.937,1.118,4.056,4.056,0,0,0-.324,1.679,3.977,3.977,0,0,0,.324,1.661,2.482,2.482,0,0,0,.937,1.1,2.642,2.642,0,0,0,1.447.389,2.712,2.712,0,0,0,1.47-.389" transform="translate(-347.67 -442.762)" fill="#fff"></path>
      <path id="Path_75" data-name="Path 75" d="M546.795,664.493h.809l2.523,5.557q.067.145.15.376c.055.155.1.278.123.371h.031l.072-.206a4.855,4.855,0,0,1,.2-.546l2.534-5.552h.768v7.385h-.665V666.97q0-.8.057-1.432h-.021q-.062.211-.227.613l-2.6,5.727h-.293l-2.642-5.789a2.53,2.53,0,0,1-.165-.515h-.021q.025.314.026,1.5v4.8h-.665Z" transform="translate(-364.532 -442.998)" fill="#fff"></path>
      <rect id="Rectangle_10" data-name="Rectangle 10" width="0.68" height="7.385" transform="translate(191.404 221.495)" fill="#fff"></rect>
      <path id="Path_76" data-name="Path 76" d="M582.006,664.477h.752l4.058,5.871a2.585,2.585,0,0,1,.165.294c.065.13.115.232.149.3h.021c-.017-.127-.031-.305-.041-.536s-.015-.446-.015-.649v-5.279h.68l.005,7.385h-.732l-4.1-5.949a2.745,2.745,0,0,1-.268-.566h-.031a3.788,3.788,0,0,1,.031.456q.01.347.01.667v5.392h-.685Z" transform="translate(-388.006 -442.988)" fill="#fff"></path>
      <path id="Path_77" data-name="Path 77" d="M605.37,671.3a2.873,2.873,0,0,1-1.2-1.272,4.5,4.5,0,0,1-.412-2.009,4.631,4.631,0,0,1,.445-2.114,3.043,3.043,0,0,1,1.3-1.336,4.266,4.266,0,0,1,2.047-.459,7.877,7.877,0,0,1,1.009.07q.535.069,1.02.168l-.206.618q-.453-.088-.971-.152a7.639,7.639,0,0,0-.945-.065,3.254,3.254,0,0,0-1.617.376,2.45,2.45,0,0,0-1.02,1.1,4.483,4.483,0,0,0-.01,3.45,2.428,2.428,0,0,0,.986,1.084,3.067,3.067,0,0,0,1.558.373,3.447,3.447,0,0,0,.853-.106,2.749,2.749,0,0,0,.734-.3V668.5h-1.854v-.623h2.539l.005,3.224a4.433,4.433,0,0,1-1.125.463,4.846,4.846,0,0,1-1.249.165,3.819,3.819,0,0,1-1.887-.438" transform="translate(-402.51 -442.74)" fill="#fff"></path>
    </g>
  </g>
</svg>
