<?xml version="1.0" encoding="UTF-8"?>
<svg xmlns="http://www.w3.org/2000/svg" xmlns:xlink="http://www.w3.org/1999/xlink" id="Group_12" data-name="Group 12" width="143.049" height="68.528" viewBox="0 0 143.049 68.528">
  <defs>
    <clipPath id="clip-path">
      <rect id="Rectangle_3" data-name="Rectangle 3" width="143.049" height="68.528" fill="none"></rect>
    </clipPath>
  </defs>
  <g id="Group_1" data-name="Group 1" clip-path="url(#clip-path)">
    <path id="Path_1" data-name="Path 1" d="M130.591,242.114h-7.3c.082-.856.8-.851,1.326-1.069a16.253,16.253,0,0,0,1.773-.714,2.856,2.856,0,0,1,4.2,1.783" transform="translate(-89.908 -174.974)" fill="#262261"></path>
    <path id="Path_2" data-name="Path 2" d="M52.644,14.024a16.6,16.6,0,0,0-7.488-11.5c-5.11-3.485-11.5-3.419-16.171.584-.911.78-1.713,1.691-2.585,2.569-.278-.327-.556-.682-.856-1.014s-.633-.687-.976-1A12.682,12.682,0,0,0,11.713.624a16.21,16.21,0,0,0-8.961,6.9c-2.841,4.292-3.278,9-2.236,13.918A28.61,28.61,0,0,0,5.85,32.491a50.251,50.251,0,0,0,13.269,12.2,1.238,1.238,0,0,1,.5.7q1.718,8.86,3.392,17.73a5.967,5.967,0,0,1-.213,3.518.728.728,0,0,1-.513.5H28.08a2.414,2.414,0,0,1-.36-.464,1.339,1.339,0,0,1-.1-.551,48.024,48.024,0,0,1,.409-9.026,18.315,18.315,0,0,1,.529-2.072,115.331,115.331,0,0,1-.278,12.053c-.06.022-.115.038-.174.06h5.252a1.45,1.45,0,0,1-.267-.562,9.677,9.677,0,0,1,.18-3.758c.464-2,1.009-3.976,1.543-5.956a64.766,64.766,0,0,0,2.58-14.278,1.145,1.145,0,0,1,.4-.66c1.363-1.216,2.793-2.367,4.112-3.632A39.248,39.248,0,0,0,50.954,25.8a20.8,20.8,0,0,0,1.691-11.775m-30,2.819c.235-.142.475-.289.813-.491.18.523.327.943.48,1.4a1.166,1.166,0,0,1-1.293-.906M49.421,25.1A35.824,35.824,0,0,1,42.14,35.66c-1.347,1.38-2.831,2.629-4.254,3.938-.125.115-.267.207-.48.365-.038-.523-.071-.982-.1-1.434A23.322,23.322,0,0,0,35.9,32.289a28.084,28.084,0,0,1-1.243-5.749c-.027-.185-.049-.371-.087-.693-.545.835-1.413.807-2.116,1.129a8.252,8.252,0,0,0-1.478.813A3.313,3.313,0,0,1,28,28.095a.8.8,0,0,1-.458-.562A2.947,2.947,0,0,1,27.9,25.39a8.48,8.48,0,0,0,1.516-3.643,6.214,6.214,0,0,1,.3-.938,1.864,1.864,0,0,0,.185.038,7.792,7.792,0,0,1-.147,1.44,21.333,21.333,0,0,1-.992,2.76,4.154,4.154,0,0,0-.431,1.991c.016.344.174.518.5.535a2.722,2.722,0,0,0,1.745-.349,7.431,7.431,0,0,1,2.563-1.156c1.238-.278,1.587-.878,1.625-2.171a9.147,9.147,0,0,0-2.105-6.386,7.863,7.863,0,0,0-5.89-2.809,11.581,11.581,0,0,0-2.176.033,2.615,2.615,0,0,0-1.363.605,3.447,3.447,0,0,1-2.514,1.02c-1.331-.011-2.662-.076-3.987-.1a6.468,6.468,0,0,0-.911.126,26.812,26.812,0,0,0,.2,2.95,2.389,2.389,0,0,0,2.291,2.1c.546.071,1.091.131,1.7.2.131.24-.033.36-.305.316-.709-.115-1.413-.262-2.122-.4a2.307,2.307,0,0,1-.316-.1,2.818,2.818,0,0,0,.578.589c.753.415,1.565.731,2.3,1.178A4.766,4.766,0,0,1,22.664,27.4a9.7,9.7,0,0,1-.927,4.412,10.086,10.086,0,0,1-.589,1.1A15.562,15.562,0,0,0,19,40.383c-.054.687-.065,1.375-.1,2.154-.442-.316-.84-.6-1.238-.889A46.136,46.136,0,0,1,5.686,29.3a24.317,24.317,0,0,1-3.632-8.677,16.231,16.231,0,0,1,1.1-10.368,15.287,15.287,0,0,1,8.208-7.734,11.219,11.219,0,0,1,12.8,3.147c.856.982,1.571,2.089,2.356,3.147.038-.066.136-.218.229-.371a12.609,12.609,0,0,1,7.035-6.163A11.407,11.407,0,0,1,44.093,3.847a14.928,14.928,0,0,1,6.888,10.439A19.174,19.174,0,0,1,49.421,25.1" transform="translate(0 0)" fill="#262261"></path>
    <path id="Path_3" data-name="Path 3" d="M61.872,185.987a3.712,3.712,0,0,0-2.716-.693,2.549,2.549,0,0,0-1.816,1.069c-.267.382-.518.393-.835.12-2.061-1.762-2.814-3.692-1.811-6.136a13.842,13.842,0,0,1,.9-1.854,19.6,19.6,0,0,0,2.847-10.384c0-.071.011-.136.011-.207.4.093.409.093.485.562.387,2.416.753,4.832,1.162,7.248.567,3.327,1.167,6.648,1.756,9.975.011.082.011.169.016.3" transform="translate(-39.562 -122.437)" fill="#262261"></path>
    <path id="Path_4" data-name="Path 4" d="M128.932,205.1a13.779,13.779,0,0,1-5.154,3.152,16.965,16.965,0,0,1,.867-5.366q1.006-3.5,2.018-7c.038-.131.082-.256.136-.431a6,6,0,0,1,2.132,9.642" transform="translate(-90.255 -142.529)" fill="#262261"></path>
    <path id="Path_5" data-name="Path 5" d="M34.171,214.52a3.891,3.891,0,0,1-3.033,1.516A6.941,6.941,0,0,1,24.1,211.27a7.219,7.219,0,0,1,.442-5.378,2.192,2.192,0,0,1,.191-.305,1.907,1.907,0,0,1,.18-.2,1.392,1.392,0,0,1,.038.278c-.311,2.656,1.282,4.074,3.311,4.848a7.432,7.432,0,0,0,2.885.464.666.666,0,0,1,.507.218c.387.589.676,1.243,1.1,1.8a18.531,18.531,0,0,0,1.424,1.527" transform="translate(-17.332 -149.77)" fill="#262261"></path>
    <path id="Path_6" data-name="Path 6" d="M70.843,237.972c-1.309-.011-2.623-.005-3.943-.005a2.1,2.1,0,0,1,1.609-2.334,2.378,2.378,0,0,1,2.754,1.783c.082.36,0,.556-.42.556" transform="translate(-48.752 -171.792)" fill="#262261"></path>
    <path id="Path_7" data-name="Path 7" d="M238.629,9.987l-2.434,2.946v5.592h-3.308V.625h3.308V8.576a10.168,10.168,0,0,1,1.111-1.61L242.96,0l3.632.312-5.7,6.928L246.8,18.525h-3.919Z" transform="translate(-169.825 -0.001)" fill="#262261"></path>
    <path id="Path_8" data-name="Path 8" d="M298.7,3.268a11.044,11.044,0,0,1,1.41,6.123,14.547,14.547,0,0,1-1.654,7.508q-1.654,2.753-5.748,2.753a14.383,14.383,0,0,1-2.509-.237l.25-3.108a10.208,10.208,0,0,0,2.072.237,3.766,3.766,0,0,0,3.108-1.217,6.7,6.7,0,0,0,1.223-3.588,5.762,5.762,0,0,1-5.935.356,4.81,4.81,0,0,1-1.872-1.947,6.413,6.413,0,0,1-.705-3.115A6.393,6.393,0,0,1,289.045,4a5.132,5.132,0,0,1,2.016-2.091,5.993,5.993,0,0,1,3.046-.755A5.114,5.114,0,0,1,298.7,3.268M296.953,8.7a11.958,11.958,0,0,0-.337-2.765,2.815,2.815,0,0,0-.886-1.5,2.5,2.5,0,0,0-1.6-.474,2.239,2.239,0,0,0-1.929.786,3.274,3.274,0,0,0-.58,2,3.814,3.814,0,0,0,.356,1.729,2.4,2.4,0,0,0,.968,1.048,2.781,2.781,0,0,0,1.386.343A3.093,3.093,0,0,0,296.953,8.7" transform="translate(-210.262 -0.84)" fill="#262261"></path>
    <path id="Path_9" data-name="Path 9" d="M232.886,90.581h3.308v14.841h6.89v3.058h-10.2Z" transform="translate(-169.824 -66.053)" fill="#262261"></path>
    <path id="Path_10" data-name="Path 10" d="M285.011,111.229a4.8,4.8,0,0,1,1.853,2.041,6.286,6.286,0,0,1,.6,2.734,7.3,7.3,0,0,1-.3,2.035l-8.2.062a3.141,3.141,0,0,0,1.192,1.8,3.818,3.818,0,0,0,2.291.637,9.074,9.074,0,0,0,1.773-.187,11.386,11.386,0,0,0,1.872-.549l.637,2.584a10.93,10.93,0,0,1-2.247.624,13.8,13.8,0,0,1-2.472.25,6.609,6.609,0,0,1-4.712-1.579,6.38,6.38,0,0,1-1.679-4.862,7.463,7.463,0,0,1,.743-3.476,4.938,4.938,0,0,1,2.147-2.159,7.233,7.233,0,0,1,3.377-.73,5.821,5.821,0,0,1,3.127.78m-.743,4.275a2.432,2.432,0,0,0-.605-1.679,2.407,2.407,0,0,0-1.891-.68,2.676,2.676,0,0,0-2.01.73,3.513,3.513,0,0,0-.9,2l5.392-.05a3.208,3.208,0,0,0,.012-.325" transform="translate(-200.985 -80.541)" fill="#262261"></path>
    <path id="Path_11" data-name="Path 11" d="M329.19,90.091a1.841,1.841,0,0,1-.68-.68,1.891,1.891,0,0,1-.25-.967,1.87,1.87,0,0,1,.25-.955,1.8,1.8,0,0,1,.68-.674,1.936,1.936,0,0,1,.968-.243,1.909,1.909,0,0,1,.955.243,1.752,1.752,0,0,1,.674.674,1.906,1.906,0,0,1,.243.955,1.927,1.927,0,0,1-.243.967,1.793,1.793,0,0,1-.674.68,1.867,1.867,0,0,1-.955.25,1.893,1.893,0,0,1-.968-.25m-.705,3.308h3.308v12.158h-3.308Z" transform="translate(-239.372 -63.129)" fill="#262261"></path>
    <path id="Path_12" data-name="Path 12" d="M351.309,122.408l.836-2.671a9.108,9.108,0,0,0,3.432.924q2.01-.012,2.022-1.248a.921.921,0,0,0-.287-.705,2.073,2.073,0,0,0-.718-.424q-.43-.156-1.179-.343a13.072,13.072,0,0,1-1.866-.611,3.133,3.133,0,0,1-1.248-1.011,3.066,3.066,0,0,1-.53-1.9q.037-3.832,4.593-3.832a9.932,9.932,0,0,1,4.032.749l-.711,2.721a8.291,8.291,0,0,0-3.071-.674,2.8,2.8,0,0,0-1.223.225.825.825,0,0,0-.437.724.68.68,0,0,0,.25.53,2.053,2.053,0,0,0,.624.362q.375.143,1.061.343a13.232,13.232,0,0,1,1.935.68,3.55,3.55,0,0,1,1.342,1.1,3.175,3.175,0,0,1,.568,1.978q0,4.057-5.155,4.057a10.846,10.846,0,0,1-4.269-.974" transform="translate(-256.18 -80.642)" fill="#262261"></path>
    <path id="Path_13" data-name="Path 13" d="M404.452,124.431a11.784,11.784,0,0,1-.861-2.272,2.706,2.706,0,0,1-.662.924,3.98,3.98,0,0,1-1.311.805,5.14,5.14,0,0,1-1.922.331,5.378,5.378,0,0,1-2.883-.686,3.877,3.877,0,0,1-1.566-1.779,6.034,6.034,0,0,1-.468-2.4V111.8h3.308v6.915a3.8,3.8,0,0,0,.537,2.141,2.258,2.258,0,0,0,2.022.805,2.575,2.575,0,0,0,1.33-.356,2.521,2.521,0,0,0,.961-1.036,3.388,3.388,0,0,0,.356-1.592v-6.89h3.258v7.04a10.783,10.783,0,0,0,.143,1.885,7.666,7.666,0,0,0,.375,1.4,14.5,14.5,0,0,0,.643,1.4Z" transform="translate(-287.878 -81.516)" fill="#262261"></path>
    <path id="Path_14" data-name="Path 14" d="M458.017,110.4a4.933,4.933,0,0,1,1.286.175l-.35,3.2a6.341,6.341,0,0,0-.674-.037,4.461,4.461,0,0,0-3.47,1.46l-.012,7.739h-3.32l.025-12.158h2.783l.412,2.085a3.546,3.546,0,0,1,3.32-2.459" transform="translate(-329.223 -80.507)" fill="#262261"></path>
    <path id="Path_15" data-name="Path 15" d="M493.921,111.229a4.8,4.8,0,0,1,1.854,2.041,6.287,6.287,0,0,1,.6,2.734,7.3,7.3,0,0,1-.3,2.035l-8.2.062a3.139,3.139,0,0,0,1.192,1.8,3.816,3.816,0,0,0,2.29.637,9.072,9.072,0,0,0,1.773-.187A11.384,11.384,0,0,0,495,119.8l.637,2.584a10.93,10.93,0,0,1-2.247.624,13.8,13.8,0,0,1-2.472.25,6.61,6.61,0,0,1-4.712-1.579,6.38,6.38,0,0,1-1.679-4.862,7.463,7.463,0,0,1,.743-3.476,4.938,4.938,0,0,1,2.147-2.159,7.232,7.232,0,0,1,3.376-.73,5.819,5.819,0,0,1,3.127.78m-.743,4.275a2.434,2.434,0,0,0-.605-1.679,2.407,2.407,0,0,0-1.891-.68,2.676,2.676,0,0,0-2.01.73,3.513,3.513,0,0,0-.9,2l5.392-.05a3.138,3.138,0,0,0,.012-.325" transform="translate(-353.325 -80.541)" fill="#262261"></path>
    <path id="Path_16" data-name="Path 16" d="M236.724,201.373a6.937,6.937,0,0,1-2.859-3.127,11.41,11.41,0,0,1-.98-4.949,10.549,10.549,0,0,1,1.123-5.043,7.456,7.456,0,0,1,3.271-3.189,11.283,11.283,0,0,1,5.168-1.092,16.559,16.559,0,0,1,4.044.549l-.861,3.033a8.273,8.273,0,0,0-1.566-.325,14.291,14.291,0,0,0-1.792-.125,6.607,6.607,0,0,0-3.2.724,4.786,4.786,0,0,0-2.022,2.091,7.17,7.17,0,0,0-.693,3.277,8.131,8.131,0,0,0,.605,3.3,4.508,4.508,0,0,0,1.773,2.091,5.244,5.244,0,0,0,2.8.718,14.981,14.981,0,0,0,4.394-.861l.774,3.033a13.965,13.965,0,0,1-2.653.724,16.258,16.258,0,0,1-2.8.25,8.978,8.978,0,0,1-4.525-1.073" transform="translate(-169.824 -134.156)" fill="#262261"></path>
    <rect id="Rectangle_2" data-name="Rectangle 2" width="3.308" height="18.923" transform="translate(79.776 49.118)" fill="#262261"></rect>
    <path id="Path_17" data-name="Path 17" d="M328.945,219.021a11.791,11.791,0,0,1-.861-2.272,2.7,2.7,0,0,1-.661.924,3.98,3.98,0,0,1-1.311.805,5.14,5.14,0,0,1-1.922.331,5.379,5.379,0,0,1-2.883-.686,3.877,3.877,0,0,1-1.566-1.779,6.034,6.034,0,0,1-.468-2.4v-7.552h3.308V213.3a3.8,3.8,0,0,0,.537,2.141,2.258,2.258,0,0,0,2.022.805,2.572,2.572,0,0,0,1.329-.356,2.522,2.522,0,0,0,.962-1.036,3.391,3.391,0,0,0,.356-1.592v-6.89h3.258v7.04a10.787,10.787,0,0,0,.143,1.885,7.663,7.663,0,0,0,.375,1.4,14.506,14.506,0,0,0,.643,1.4Z" transform="translate(-232.817 -150.492)" fill="#262261"></path>
    <path id="Path_18" data-name="Path 18" d="M386.156,188.593a4.959,4.959,0,0,1,1.928,2.147,7.336,7.336,0,0,1,.668,3.22,8.439,8.439,0,0,1-.68,3.526,5.073,5.073,0,0,1-2.028,2.3,6.258,6.258,0,0,1-3.283.811,3.23,3.23,0,0,1-3.42-2.147l-.6,1.86h-2.746l-.025-18.923h3.32v8.176a5.123,5.123,0,0,1,1.666-1.242,5.015,5.015,0,0,1,2.216-.493,5.659,5.659,0,0,1,2.983.761m-1.592,8.32a4.985,4.985,0,0,0,.755-2.977,3.652,3.652,0,0,0-.792-2.49,2.806,2.806,0,0,0-2.228-.905,4.3,4.3,0,0,0-1.6.281,5.044,5.044,0,0,0-1.4.88v1.186l.013,1.461a4.193,4.193,0,0,0,.437,2.016,2.844,2.844,0,0,0,1.161,1.192,3.335,3.335,0,0,0,1.6.387,2.424,2.424,0,0,0,2.066-1.03" transform="translate(-274.163 -132.273)" fill="#262261"></path>
  </g>
</svg>
